<svg width="16" height="16" viewBox="0 0 16 16" fill="none" xmlns="http://www.w3.org/2000/svg">
<path d="M5.33333 9.33331C5.14445 9.33331 4.986 9.26931 4.858 9.14131C4.73 9.01332 4.66622 8.85509 4.66667 8.66665C4.66667 8.47776 4.73067 8.31931 4.85867 8.19131C4.98667 8.06331 5.14489 7.99954 5.33333 7.99998C5.52222 7.99998 5.68067 8.06398 5.80867 8.19198C5.93667 8.31998 6.00045 8.4782 6 8.66665C6 8.85554 5.936 9.01398 5.808 9.14198C5.68 9.26998 5.52178 9.33376 5.33333 9.33331ZM8 9.33331C7.81111 9.33331 7.65267 9.26931 7.52467 9.14131C7.39667 9.01332 7.33289 8.85509 7.33333 8.66665C7.33333 8.47776 7.39734 8.31931 7.52533 8.19131C7.65333 8.06331 7.81156 7.99954 8 7.99998C8.18889 7.99998 8.34733 8.06398 8.47534 8.19198C8.60333 8.31998 8.66711 8.4782 8.66667 8.66665C8.66667 8.85554 8.60267 9.01398 8.47467 9.14198C8.34667 9.26998 8.18845 9.33376 8 9.33331ZM10.6667 9.33331C10.4778 9.33331 10.3193 9.26931 10.1913 9.14131C10.0633 9.01332 9.99956 8.85509 10 8.66665C10 8.47776 10.064 8.31931 10.192 8.19131C10.32 8.06331 10.4782 7.99954 10.6667 7.99998C10.8556 7.99998 11.014 8.06398 11.142 8.19198C11.27 8.31998 11.3338 8.4782 11.3333 8.66665C11.3333 8.85554 11.2693 9.01398 11.1413 9.14198C11.0133 9.26998 10.8551 9.33376 10.6667 9.33331ZM3.33333 14.6666C2.96667 14.6666 2.65267 14.536 2.39133 14.2746C2.13 14.0133 1.99956 13.6995 2 13.3333V3.99998C2 3.63332 2.13067 3.31932 2.392 3.05798C2.65333 2.79665 2.96711 2.6662 3.33333 2.66665H4V1.99998C4 1.81109 4.064 1.65265 4.192 1.52465C4.32 1.39665 4.47822 1.33287 4.66667 1.33332C4.85556 1.33332 5.014 1.39732 5.142 1.52532C5.27 1.65332 5.33378 1.81154 5.33333 1.99998V2.66665H10.6667V1.99998C10.6667 1.81109 10.7307 1.65265 10.8587 1.52465C10.9867 1.39665 11.1449 1.33287 11.3333 1.33332C11.5222 1.33332 11.6807 1.39732 11.8087 1.52532C11.9367 1.65332 12.0004 1.81154 12 1.99998V2.66665H12.6667C13.0333 2.66665 13.3473 2.79732 13.6087 3.05865C13.87 3.31998 14.0004 3.63376 14 3.99998V13.3333C14 13.7 13.8693 14.014 13.608 14.2753C13.3467 14.5366 13.0329 14.6671 12.6667 14.6666H3.33333ZM3.33333 13.3333H12.6667V6.66665H3.33333V13.3333Z" fill="#5B5F6E"/>
</svg>
