<svg width="203" height="40" viewBox="0 0 203 40" fill="none" xmlns="http://www.w3.org/2000/svg">
<path d="M58.5976 29L53.8248 11.5455H55.9726L59.6203 25.7614H59.7907L63.5067 11.5455H65.893L69.6089 25.7614H69.7794L73.4271 11.5455H75.5748L70.8021 29H68.6203L64.768 15.0909H64.6317L60.7794 29H58.5976ZM81.9443 29.2727C80.6829 29.2727 79.5948 28.9943 78.6801 28.4375C77.771 27.875 77.0693 27.0909 76.575 26.0852C76.0863 25.0739 75.842 23.8977 75.842 22.5568C75.842 21.2159 76.0863 20.0341 76.575 19.0114C77.0693 17.983 77.7568 17.1818 78.6375 16.608C79.5238 16.0284 80.5579 15.7386 81.7397 15.7386C82.4216 15.7386 83.0948 15.8523 83.7596 16.0795C84.4244 16.3068 85.0295 16.6761 85.575 17.1875C86.1204 17.6932 86.5551 18.3636 86.8789 19.1989C87.2028 20.0341 87.3647 21.0625 87.3647 22.2841V23.1364H77.2738V21.3977H85.3193C85.3193 20.6591 85.1716 20 84.8761 19.4205C84.5863 18.8409 84.1716 18.3835 83.6318 18.0483C83.0977 17.7131 82.467 17.5455 81.7397 17.5455C80.9386 17.5455 80.2454 17.7443 79.6602 18.142C79.0806 18.5341 78.6346 19.0455 78.3221 19.6761C78.0096 20.3068 77.8534 20.983 77.8534 21.7045V22.8636C77.8534 23.8523 78.0238 24.6903 78.3647 25.3778C78.7113 26.0597 79.1914 26.5795 79.8051 26.9375C80.4187 27.2898 81.1318 27.4659 81.9443 27.4659C82.4727 27.4659 82.95 27.392 83.3761 27.2443C83.8079 27.0909 84.1801 26.8636 84.4926 26.5625C84.8051 26.2557 85.0466 25.875 85.217 25.4205L87.1602 25.9659C86.9556 26.625 86.6119 27.2045 86.1289 27.7045C85.646 28.1989 85.0494 28.5852 84.3392 28.8636C83.6289 29.1364 82.8306 29.2727 81.9443 29.2727ZM90.4359 29V11.5455H92.4472V17.9886H92.6177C92.7654 17.7614 92.97 17.4716 93.2313 17.1193C93.4984 16.7614 93.8791 16.4432 94.3734 16.1648C94.8734 15.8807 95.5495 15.7386 96.4018 15.7386C97.5041 15.7386 98.4757 16.0142 99.3166 16.5653C100.157 17.1165 100.814 17.8977 101.285 18.9091C101.757 19.9205 101.993 21.1136 101.993 22.4886C101.993 23.875 101.757 25.0767 101.285 26.0938C100.814 27.1051 100.16 27.8892 99.3251 28.446C98.4899 28.9972 97.5268 29.2727 96.4359 29.2727C95.595 29.2727 94.9217 29.1335 94.416 28.8551C93.9103 28.571 93.5211 28.25 93.2484 27.892C92.9757 27.5284 92.7654 27.2273 92.6177 26.9886H92.3791V29H90.4359ZM92.4132 22.4545C92.4132 23.4432 92.558 24.3153 92.8478 25.071C93.1376 25.821 93.5609 26.4091 94.1177 26.8352C94.6745 27.2557 95.3563 27.4659 96.1632 27.4659C97.0041 27.4659 97.7058 27.2443 98.2683 26.8011C98.8364 26.3523 99.2626 25.75 99.5467 24.9943C99.8364 24.233 99.9813 23.3864 99.9813 22.4545C99.9813 21.5341 99.8393 20.7045 99.5552 19.9659C99.2768 19.2216 98.8535 18.6335 98.2853 18.2017C97.7228 17.7642 97.0154 17.5455 96.1632 17.5455C95.345 17.5455 94.6575 17.7528 94.1007 18.1676C93.5438 18.5767 93.1234 19.1506 92.8393 19.8892C92.5552 20.6222 92.4132 21.4773 92.4132 22.4545ZM119.126 17H117.013C116.888 16.392 116.669 15.858 116.356 15.3977C116.05 14.9375 115.675 14.5511 115.231 14.2386C114.794 13.9205 114.308 13.6818 113.774 13.5227C113.24 13.3636 112.683 13.2841 112.104 13.2841C111.047 13.2841 110.089 13.5511 109.231 14.0852C108.379 14.6193 107.7 15.4063 107.195 16.446C106.695 17.4858 106.445 18.7614 106.445 20.2727C106.445 21.7841 106.695 23.0597 107.195 24.0994C107.7 25.1392 108.379 25.9261 109.231 26.4602C110.089 26.9943 111.047 27.2614 112.104 27.2614C112.683 27.2614 113.24 27.1818 113.774 27.0227C114.308 26.8636 114.794 26.6278 115.231 26.3153C115.675 25.9972 116.05 25.608 116.356 25.1477C116.669 24.6818 116.888 24.1477 117.013 23.5455H119.126C118.967 24.4375 118.677 25.2358 118.257 25.9403C117.837 26.6449 117.314 27.2443 116.689 27.7386C116.064 28.2273 115.362 28.5994 114.584 28.8551C113.811 29.1108 112.984 29.2386 112.104 29.2386C110.615 29.2386 109.291 28.875 108.132 28.1477C106.973 27.4205 106.061 26.3864 105.396 25.0455C104.731 23.7045 104.399 22.1136 104.399 20.2727C104.399 18.4318 104.731 16.8409 105.396 15.5C106.061 14.1591 106.973 13.125 108.132 12.3977C109.291 11.6705 110.615 11.3068 112.104 11.3068C112.984 11.3068 113.811 11.4347 114.584 11.6903C115.362 11.946 116.064 12.321 116.689 12.8153C117.314 13.304 117.837 13.9006 118.257 14.6051C118.677 15.304 118.967 16.1023 119.126 17ZM125.86 29.3068C125.031 29.3068 124.278 29.1506 123.602 28.8381C122.925 28.5199 122.389 28.0625 121.991 27.4659C121.593 26.8636 121.394 26.1364 121.394 25.2841C121.394 24.5341 121.542 23.9261 121.837 23.4602C122.133 22.9886 122.528 22.6193 123.022 22.3523C123.516 22.0852 124.062 21.8864 124.658 21.7557C125.261 21.6193 125.866 21.5114 126.474 21.4318C127.269 21.3295 127.914 21.2528 128.408 21.2017C128.908 21.1449 129.272 21.0511 129.499 20.9205C129.732 20.7898 129.849 20.5625 129.849 20.2386V20.1705C129.849 19.3295 129.619 18.6761 129.158 18.2102C128.704 17.7443 128.014 17.5114 127.087 17.5114C126.127 17.5114 125.374 17.7216 124.829 18.142C124.283 18.5625 123.9 19.0114 123.678 19.4886L121.769 18.8068C122.11 18.0114 122.565 17.392 123.133 16.9489C123.707 16.5 124.332 16.1875 125.008 16.0114C125.69 15.8295 126.36 15.7386 127.019 15.7386C127.44 15.7386 127.923 15.7898 128.468 15.892C129.019 15.9886 129.55 16.1903 130.062 16.4972C130.579 16.804 131.008 17.267 131.349 17.8864C131.69 18.5057 131.86 19.3352 131.86 20.375V29H129.849V27.2273H129.746C129.61 27.5114 129.383 27.8153 129.065 28.1392C128.746 28.4631 128.323 28.7386 127.795 28.9659C127.266 29.1932 126.621 29.3068 125.86 29.3068ZM126.167 27.5C126.962 27.5 127.633 27.3438 128.178 27.0313C128.729 26.7188 129.144 26.3153 129.423 25.821C129.707 25.3267 129.849 24.8068 129.849 24.2614V22.4205C129.764 22.5227 129.576 22.6165 129.286 22.7017C129.002 22.7813 128.673 22.8523 128.298 22.9148C127.928 22.9716 127.568 23.0227 127.215 23.0682C126.869 23.108 126.587 23.142 126.371 23.1705C125.849 23.2386 125.36 23.3494 124.906 23.5028C124.457 23.6506 124.093 23.875 123.815 24.1761C123.542 24.4716 123.406 24.875 123.406 25.3864C123.406 26.0852 123.664 26.6136 124.181 26.9716C124.704 27.3239 125.366 27.5 126.167 27.5ZM137.281 11.5455V29H135.27V11.5455H137.281ZM146.193 29.2727C144.931 29.2727 143.843 28.9943 142.929 28.4375C142.019 27.875 141.318 27.0909 140.823 26.0852C140.335 25.0739 140.09 23.8977 140.09 22.5568C140.09 21.2159 140.335 20.0341 140.823 19.0114C141.318 17.983 142.005 17.1818 142.886 16.608C143.772 16.0284 144.806 15.7386 145.988 15.7386C146.67 15.7386 147.343 15.8523 148.008 16.0795C148.673 16.3068 149.278 16.6761 149.823 17.1875C150.369 17.6932 150.804 18.3636 151.127 19.1989C151.451 20.0341 151.613 21.0625 151.613 22.2841V23.1364H141.522V21.3977H149.568C149.568 20.6591 149.42 20 149.125 19.4205C148.835 18.8409 148.42 18.3835 147.88 18.0483C147.346 17.7131 146.715 17.5455 145.988 17.5455C145.187 17.5455 144.494 17.7443 143.909 18.142C143.329 18.5341 142.883 19.0455 142.571 19.6761C142.258 20.3068 142.102 20.983 142.102 21.7045V22.8636C142.102 23.8523 142.272 24.6903 142.613 25.3778C142.96 26.0597 143.44 26.5795 144.054 26.9375C144.667 27.2898 145.38 27.4659 146.193 27.4659C146.721 27.4659 147.198 27.392 147.625 27.2443C148.056 27.0909 148.429 26.8636 148.741 26.5625C149.054 26.2557 149.295 25.875 149.465 25.4205L151.409 25.9659C151.204 26.625 150.86 27.2045 150.377 27.7045C149.894 28.1989 149.298 28.5852 148.588 28.8636C147.877 29.1364 147.079 29.2727 146.193 29.2727ZM156.423 21.125V29H154.412V15.9091H156.355V17.9545H156.525C156.832 17.2898 157.298 16.7557 157.923 16.3523C158.548 15.9432 159.355 15.7386 160.343 15.7386C161.23 15.7386 162.005 15.9205 162.67 16.2841C163.335 16.642 163.852 17.1875 164.221 17.9205C164.591 18.6477 164.775 19.5682 164.775 20.6818V29H162.764V20.8182C162.764 19.7898 162.497 18.9886 161.963 18.4148C161.429 17.8352 160.696 17.5455 159.764 17.5455C159.122 17.5455 158.548 17.6847 158.042 17.9631C157.542 18.2415 157.147 18.6477 156.858 19.1818C156.568 19.7159 156.423 20.3636 156.423 21.125ZM173.133 29.2727C172.042 29.2727 171.079 28.9972 170.243 28.446C169.408 27.8892 168.755 27.1051 168.283 26.0938C167.812 25.0767 167.576 23.875 167.576 22.4886C167.576 21.1136 167.812 19.9205 168.283 18.9091C168.755 17.8977 169.411 17.1165 170.252 16.5653C171.093 16.0142 172.064 15.7386 173.167 15.7386C174.019 15.7386 174.692 15.8807 175.187 16.1648C175.687 16.4432 176.067 16.7614 176.329 17.1193C176.596 17.4716 176.803 17.7614 176.951 17.9886H177.121V11.5455H179.133V29H177.189V26.9886H176.951C176.803 27.2273 176.593 27.5284 176.32 27.892C176.047 28.25 175.658 28.571 175.153 28.8551C174.647 29.1335 173.974 29.2727 173.133 29.2727ZM173.405 27.4659C174.212 27.4659 174.894 27.2557 175.451 26.8352C176.008 26.4091 176.431 25.821 176.721 25.071C177.01 24.3153 177.155 23.4432 177.155 22.4545C177.155 21.4773 177.013 20.6222 176.729 19.8892C176.445 19.1506 176.025 18.5767 175.468 18.1676C174.911 17.7528 174.224 17.5455 173.405 17.5455C172.553 17.5455 171.843 17.7642 171.275 18.2017C170.712 18.6335 170.289 19.2216 170.005 19.9659C169.726 20.7045 169.587 21.5341 169.587 22.4545C169.587 23.3864 169.729 24.233 170.013 24.9943C170.303 25.75 170.729 26.3523 171.292 26.8011C171.86 27.2443 172.564 27.4659 173.405 27.4659ZM186.687 29.3068C185.857 29.3068 185.104 29.1506 184.428 28.8381C183.752 28.5199 183.215 28.0625 182.817 27.4659C182.42 26.8636 182.221 26.1364 182.221 25.2841C182.221 24.5341 182.369 23.9261 182.664 23.4602C182.959 22.9886 183.354 22.6193 183.849 22.3523C184.343 22.0852 184.888 21.8864 185.485 21.7557C186.087 21.6193 186.692 21.5114 187.3 21.4318C188.096 21.3295 188.741 21.2528 189.235 21.2017C189.735 21.1449 190.099 21.0511 190.326 20.9205C190.559 20.7898 190.675 20.5625 190.675 20.2386V20.1705C190.675 19.3295 190.445 18.6761 189.985 18.2102C189.53 17.7443 188.84 17.5114 187.914 17.5114C186.954 17.5114 186.201 17.7216 185.655 18.142C185.11 18.5625 184.726 19.0114 184.505 19.4886L182.596 18.8068C182.937 18.0114 183.391 17.392 183.959 16.9489C184.533 16.5 185.158 16.1875 185.834 16.0114C186.516 15.8295 187.187 15.7386 187.846 15.7386C188.266 15.7386 188.749 15.7898 189.295 15.892C189.846 15.9886 190.377 16.1903 190.888 16.4972C191.405 16.804 191.834 17.267 192.175 17.8864C192.516 18.5057 192.687 19.3352 192.687 20.375V29H190.675V27.2273H190.573C190.437 27.5114 190.209 27.8153 189.891 28.1392C189.573 28.4631 189.15 28.7386 188.621 28.9659C188.093 29.1932 187.448 29.3068 186.687 29.3068ZM186.994 27.5C187.789 27.5 188.459 27.3438 189.005 27.0313C189.556 26.7188 189.971 26.3153 190.249 25.821C190.533 25.3267 190.675 24.8068 190.675 24.2614V22.4205C190.59 22.5227 190.403 22.6165 190.113 22.7017C189.829 22.7813 189.499 22.8523 189.124 22.9148C188.755 22.9716 188.394 23.0227 188.042 23.0682C187.695 23.108 187.414 23.142 187.198 23.1705C186.675 23.2386 186.187 23.3494 185.732 23.5028C185.283 23.6506 184.92 23.875 184.641 24.1761C184.369 24.4716 184.232 24.875 184.232 25.3864C184.232 26.0852 184.491 26.6136 185.008 26.9716C185.53 27.3239 186.192 27.5 186.994 27.5ZM196.097 29V15.9091H198.04V17.8864H198.176C198.415 17.2386 198.847 16.7131 199.472 16.3097C200.097 15.9063 200.801 15.7045 201.585 15.7045C201.733 15.7045 201.918 15.7074 202.139 15.7131C202.361 15.7188 202.528 15.7273 202.642 15.7386V17.7841C202.574 17.767 202.418 17.7415 202.173 17.7074C201.935 17.6676 201.682 17.6477 201.415 17.6477C200.778 17.6477 200.21 17.7813 199.71 18.0483C199.216 18.3097 198.824 18.6733 198.534 19.1392C198.25 19.5994 198.108 20.125 198.108 20.7159V29H196.097Z" fill="#323749"/>
<rect x="11.3137" y="20" width="28.2843" height="28.2843" rx="5.22483" transform="rotate(-45 11.3137 20)" fill="#80D78D"/>
<rect y="20" width="28.2843" height="28.2843" rx="5.22483" transform="rotate(-45 0 20)" fill="#00AE1C"/>
</svg>
