<svg width="16" height="16" viewBox="0 0 16 16" fill="none" xmlns="http://www.w3.org/2000/svg">
<path d="M7.23017 3.59386H2.75936C2.54815 3.59386 2.36899 3.51736 2.22189 3.36435C2.07396 3.21133 2 3.02517 2 2.80586C2 2.58654 2.07396 2.39783 2.22189 2.23972C2.36982 2.07991 2.54897 2 2.75936 2H13.2419C13.4523 2 13.6314 2.07651 13.7793 2.22952C13.9264 2.38253 14 2.56869 14 2.788C14 3.00732 13.926 3.19603 13.7781 3.35414C13.631 3.51395 13.4523 3.59386 13.2419 3.59386H8.77107V13.2158C8.77107 13.4334 8.6971 13.6187 8.54918 13.7718C8.40125 13.9239 8.22127 14 8.00925 14C7.79722 14 7.61436 13.9214 7.46068 13.7641C7.307 13.6068 7.23017 13.4156 7.23017 13.1903V3.59386Z" fill="#5B5F6E"/>
</svg>
