<svg width="40" height="40" viewBox="0 0 40 40" fill="none" xmlns="http://www.w3.org/2000/svg">
<circle cx="20" cy="20" r="20" fill="#80D78D"/>
<path d="M23.2983 11.5455H26.9886V22.8807C26.9886 24.1534 26.6847 25.267 26.0767 26.2216C25.4744 27.1761 24.6307 27.9205 23.5455 28.4545C22.4602 28.983 21.196 29.2472 19.7528 29.2472C18.304 29.2472 17.0369 28.983 15.9517 28.4545C14.8665 27.9205 14.0227 27.1761 13.4205 26.2216C12.8182 25.267 12.517 24.1534 12.517 22.8807V11.5455H16.2074V22.5653C16.2074 23.2301 16.3523 23.821 16.642 24.3381C16.9375 24.8551 17.3523 25.2614 17.8864 25.5568C18.4205 25.8523 19.0426 26 19.7528 26C20.4688 26 21.0909 25.8523 21.6193 25.5568C22.1534 25.2614 22.5653 24.8551 22.8551 24.3381C23.1506 23.821 23.2983 23.2301 23.2983 22.5653V11.5455Z" fill="white"/>
</svg>
