<svg width="16" height="16" viewBox="0 0 16 16" fill="none" xmlns="http://www.w3.org/2000/svg">
    <g clip-path="url(#clip0_1_441)">
        <path
            d="M2.03328 6.20666C2.00494 6.12203 1.99388 6.03257 2.00076 5.94358C2.00764 5.8546 2.03232 5.7679 2.07333 5.68864C2.11434 5.60937 2.17085 5.53914 2.23951 5.48212C2.30817 5.4251 2.38757 5.38244 2.47302 5.35668C2.55847 5.33092 2.64823 5.32258 2.73696 5.33216C2.82569 5.34173 2.9116 5.36902 2.98959 5.41242C3.06758 5.45581 3.13606 5.51442 3.19098 5.58478C3.24589 5.65513 3.28612 5.7358 3.30928 5.82199C4.69995 10.4793 11.2973 10.48 12.6893 5.82466C12.7142 5.7407 12.7555 5.66248 12.8107 5.59446C12.8658 5.52644 12.9339 5.46995 13.0109 5.42823C13.0879 5.3865 13.1724 5.36036 13.2595 5.35128C13.3466 5.3422 13.4347 5.35037 13.5186 5.37532C13.6026 5.40027 13.6808 5.44152 13.7488 5.4967C13.8168 5.55188 13.8733 5.61992 13.915 5.69693C13.9568 5.77394 13.9829 5.85841 13.992 5.94553C14.0011 6.03265 13.9929 6.1207 13.9679 6.20466C13.7254 7.03878 13.314 7.81415 12.7593 8.48266L13.6093 9.33332C13.7307 9.45906 13.7979 9.62746 13.7964 9.80226C13.7949 9.97705 13.7248 10.1443 13.6012 10.2679C13.4776 10.3915 13.3103 10.4616 13.1355 10.4631C12.9607 10.4646 12.7923 10.3974 12.6666 10.276L11.7926 9.40199C11.3209 9.75766 10.7999 10.0427 10.2459 10.248L10.4839 11.138C10.5093 11.2234 10.5174 11.3129 10.5076 11.4015C10.4977 11.49 10.4703 11.5756 10.4268 11.6534C10.3834 11.7311 10.3248 11.7994 10.2545 11.8541C10.1842 11.9088 10.1037 11.9489 10.0177 11.9719C9.93165 11.995 9.84188 12.0006 9.75365 11.9884C9.66543 11.9762 9.58054 11.9465 9.50401 11.9009C9.42747 11.8554 9.36084 11.795 9.30804 11.7232C9.25525 11.6515 9.21736 11.5699 9.19661 11.4833L8.95395 10.5787C8.32261 10.672 7.67728 10.672 7.04595 10.5787L6.80328 11.4833C6.78253 11.5699 6.74464 11.6515 6.69185 11.7232C6.63905 11.795 6.57242 11.8554 6.49588 11.9009C6.41935 11.9465 6.33446 11.9762 6.24624 11.9884C6.15801 12.0006 6.06824 11.995 5.98222 11.9719C5.8962 11.9489 5.81567 11.9088 5.7454 11.8541C5.67512 11.7994 5.61652 11.7311 5.57306 11.6534C5.5296 11.5756 5.50215 11.49 5.49234 11.4015C5.48253 11.3129 5.49056 11.2234 5.51595 11.138L5.75395 10.248C5.19998 10.0424 4.67894 9.75722 4.20728 9.40132L3.33395 10.276C3.20894 10.4012 3.03933 10.4716 2.86242 10.4717C2.68551 10.4718 2.51579 10.4017 2.39061 10.2767C2.26543 10.1517 2.19503 9.98204 2.19491 9.80513C2.19478 9.62822 2.26494 9.4585 2.38995 9.33332L3.23995 8.48332C2.71728 7.85932 2.29995 7.10066 2.03195 6.20732L2.03328 6.20666Z"
            fill="white" />
    </g>
    <defs>
        <clipPath id="clip0_1_441">
            <rect width="16" height="16" fill="white" />
        </clipPath>
    </defs>
</svg>