<svg width="16" height="16" viewBox="0 0 16 16" fill="none" xmlns="http://www.w3.org/2000/svg">
    <g clip-path="url(#clip0_1_443)">
        <path fill-rule="evenodd" clip-rule="evenodd"
            d="M2.66671 8.00068V8.00001C2.66871 7.98934 2.67804 7.93068 2.73004 7.81534C2.78737 7.68801 2.88004 7.52801 3.01271 7.34334C3.27804 6.97468 3.67471 6.54868 4.17604 6.14468C5.18471 5.33068 6.54137 4.66668 8.00004 4.66668C9.45871 4.66668 10.8154 5.33068 11.824 6.14401C12.3254 6.54801 12.722 6.97401 12.9874 7.34268C13.1207 7.52734 13.2127 7.68734 13.27 7.81468C13.322 7.93001 13.3314 7.98868 13.3334 7.99934V8.00001C13.3314 8.01068 13.322 8.06934 13.27 8.18468C13.1913 8.35081 13.0967 8.50888 12.9874 8.65668C12.722 9.02534 12.3254 9.45134 11.824 9.85534C10.816 10.6693 9.45871 11.3333 8.00004 11.3333C6.54137 11.3333 5.18471 10.6693 4.17604 9.85601C3.67471 9.45201 3.27804 9.02601 3.01271 8.65734C2.90331 8.50961 2.80864 8.35152 2.73004 8.18534C2.7009 8.12684 2.67961 8.06475 2.66671 8.00068ZM8.00004 3.33334C6.14471 3.33334 4.50137 4.16934 3.33937 5.10601C2.75471 5.57668 2.27271 6.08868 1.93071 6.56401C1.76876 6.784 1.62918 7.01962 1.51404 7.26734C1.41537 7.48668 1.33337 7.74068 1.33337 8.00001C1.33337 8.25868 1.41537 8.51401 1.51337 8.73268C1.61671 8.96068 1.76004 9.19934 1.93071 9.43601C2.27271 9.91134 2.75471 10.4227 3.33937 10.894C4.50137 11.8307 6.14471 12.6667 8.00004 12.6667C9.85537 12.6667 11.4987 11.8307 12.6607 10.894C13.2454 10.4233 13.7274 9.91134 14.0694 9.43601C14.2407 9.19868 14.3834 8.96068 14.486 8.73268C14.5847 8.51401 14.6667 8.25934 14.6667 8.00001C14.6667 7.74134 14.5847 7.48601 14.4867 7.26734C14.3712 7.01967 14.2314 6.78407 14.0694 6.56401C13.7274 6.08868 13.2454 5.57734 12.6607 5.10601C11.4987 4.16934 9.85537 3.33334 8.00004 3.33334ZM7.33337 8.00001C7.33337 7.8232 7.40361 7.65363 7.52864 7.52861C7.65366 7.40358 7.82323 7.33334 8.00004 7.33334C8.17685 7.33334 8.34642 7.40358 8.47144 7.52861C8.59647 7.65363 8.66671 7.8232 8.66671 8.00001C8.66671 8.17682 8.59647 8.34639 8.47144 8.47141C8.34642 8.59644 8.17685 8.66668 8.00004 8.66668C7.82323 8.66668 7.65366 8.59644 7.52864 8.47141C7.40361 8.34639 7.33337 8.17682 7.33337 8.00001ZM8.00004 6.00001C7.46961 6.00001 6.9609 6.21072 6.58583 6.5858C6.21075 6.96087 6.00004 7.46958 6.00004 8.00001C6.00004 8.53044 6.21075 9.03915 6.58583 9.41422C6.9609 9.7893 7.46961 10 8.00004 10C8.53047 10 9.03918 9.7893 9.41425 9.41422C9.78933 9.03915 10 8.53044 10 8.00001C10 7.46958 9.78933 6.96087 9.41425 6.5858C9.03918 6.21072 8.53047 6.00001 8.00004 6.00001Z"
            fill="white" />
    </g>
    <defs>
        <clipPath id="clip0_1_443">
            <rect width="16" height="16" fill="white" />
        </clipPath>
    </defs>
</svg>
    